<svg width="400" height="194" viewBox="0 0 400 194" fill="none" xmlns="http://www.w3.org/2000/svg">
<path fill-rule="evenodd" clip-rule="evenodd" d="M0.912109 63.8946L200.912 0.523438L400 40.6177L355.742 142.747L0.912109 63.8946Z" fill="url(#paint0_radial_512_36)"/>
<path d="M355.742 142.747L0.912109 63.8946V193.533H355.742V142.747Z" fill="url(#paint1_linear_512_36)"/>
<path d="M400 40.6177L355.742 142.747V193.533H400V40.6177Z" fill="url(#paint2_linear_512_36)"/>
<mask id="mask0_512_36" style="mask-type:alpha" maskUnits="userSpaceOnUse" x="0" y="0" width="400" height="194">
<path d="M399.088 40.6489L354.83 142.778V193.564H399.088V40.6489Z" fill="url(#paint3_linear_512_36)"/>
<path d="M200 0.554688L0 63.9258L354.83 142.778L399.088 40.6489L200 0.554688Z" fill="url(#paint4_linear_512_36)"/>
</mask>
<g mask="url(#mask0_512_36)">
<g filter="url(#filter0_f_512_36)">
<path d="M204.712 -44.4297L188.457 29.598C182.846 55.1515 204.805 78.2978 230.618 74.0398L428.268 41.4366L204.712 -44.4297Z" fill="url(#paint5_radial_512_36)"/>
</g>
</g>
<defs>
<filter id="filter0_f_512_36" x="171.574" y="-60.4297" width="272.694" height="150.978" filterUnits="userSpaceOnUse" color-interpolation-filters="sRGB">
<feFlood flood-opacity="0" result="BackgroundImageFix"/>
<feBlend mode="normal" in="SourceGraphic" in2="BackgroundImageFix" result="shape"/>
<feGaussianBlur stdDeviation="8" result="effect1_foregroundBlur_512_36"/>
</filter>
<radialGradient id="paint0_radial_512_36" cx="0" cy="0" r="1" gradientUnits="userSpaceOnUse" gradientTransform="translate(215.654 193.533) rotate(-88.5865) scale(221.8 458.619)">
<stop offset="0.572645" stop-color="white"/>
<stop offset="1" stop-color="white" stop-opacity="0"/>
</radialGradient>
<linearGradient id="paint1_linear_512_36" x1="200.456" y1="0.523437" x2="200.456" y2="193.533" gradientUnits="userSpaceOnUse">
<stop stop-color="white"/>
<stop offset="1" stop-color="white" stop-opacity="0"/>
</linearGradient>
<linearGradient id="paint2_linear_512_36" x1="381.915" y1="142.469" x2="377.508" y2="37.4535" gradientUnits="userSpaceOnUse">
<stop stop-color="#E0E0E0"/>
<stop offset="1" stop-color="#C4C4C4"/>
</linearGradient>
<linearGradient id="paint3_linear_512_36" x1="381.003" y1="142.5" x2="376.596" y2="37.4848" gradientUnits="userSpaceOnUse">
<stop stop-color="#E0E0E0"/>
<stop offset="1" stop-color="#C4C4C4"/>
</linearGradient>
<linearGradient id="paint4_linear_512_36" x1="381.003" y1="142.5" x2="376.596" y2="37.4848" gradientUnits="userSpaceOnUse">
<stop stop-color="#E0E0E0"/>
<stop offset="1" stop-color="#C4C4C4"/>
</linearGradient>
<radialGradient id="paint5_radial_512_36" cx="0" cy="0" r="1" gradientUnits="userSpaceOnUse" gradientTransform="translate(187.842 78.3669) rotate(-22.3391) scale(219.514 661.769)">
<stop/>
<stop offset="1" stop-opacity="0"/>
</radialGradient>
</defs>
</svg>
