<svg width="633" height="262" viewBox="0 0 633 262" fill="none" xmlns="http://www.w3.org/2000/svg">
<mask id="mask0_516_3" style="mask-type:alpha" maskUnits="userSpaceOnUse" x="0" y="0" width="577" height="136">
<path fill-rule="evenodd" clip-rule="evenodd" d="M0.00146484 0.742188L576.332 64.8752L365.213 135.768L0.00146484 0.742188Z" fill="url(#paint0_radial_516_3)"/>
</mask>
<g mask="url(#mask0_516_3)">
<g filter="url(#filter0_f_516_3)">
<path d="M-2.7717 -74.1406L430.56 78.0453L3.12158 111.845L-2.7717 -74.1406Z" fill="url(#paint1_radial_516_3)"/>
</g>
</g>
<path d="M55.9995 6.32031L421.211 141.346V261.466H55.9995V6.32031Z" fill="url(#paint2_radial_516_3)"/>
<path d="M55.9995 6.32031L421.211 141.346V261.466H55.9995V6.32031Z" fill="url(#paint3_linear_516_3)"/>
<path d="M421.211 141.346L632.33 70.4533V261.466H421.211V141.346Z" fill="url(#paint4_linear_516_3)"/>
<path fill-rule="evenodd" clip-rule="evenodd" d="M55.9995 6.32031L632.33 70.4533L421.211 141.346L55.9995 6.32031Z" fill="url(#paint5_radial_516_3)"/>
<defs>
<filter id="filter0_f_516_3" x="-18.7717" y="-90.1406" width="465.331" height="217.986" filterUnits="userSpaceOnUse" color-interpolation-filters="sRGB">
<feFlood flood-opacity="0" result="BackgroundImageFix"/>
<feBlend mode="normal" in="SourceGraphic" in2="BackgroundImageFix" result="shape"/>
<feGaussianBlur stdDeviation="8" result="effect1_foregroundBlur_516_3"/>
</filter>
<radialGradient id="paint0_radial_516_3" cx="0" cy="0" r="1" gradientUnits="userSpaceOnUse" gradientTransform="translate(266.22 255.888) rotate(-91.544) scale(293.222 662.262)">
<stop offset="0.572645" stop-color="white"/>
<stop offset="1" stop-color="white" stop-opacity="0"/>
</radialGradient>
<radialGradient id="paint1_radial_516_3" cx="0" cy="0" r="1" gradientUnits="userSpaceOnUse" gradientTransform="translate(492.613 86.1919) rotate(-164.262) scale(453.089 1365.93)">
<stop/>
<stop offset="1" stop-opacity="0"/>
</radialGradient>
<radialGradient id="paint2_radial_516_3" cx="0" cy="0" r="1" gradientUnits="userSpaceOnUse" gradientTransform="translate(322.218 261.466) rotate(-91.544) scale(293.222 662.262)">
<stop offset="0.572645" stop-color="white"/>
<stop offset="1" stop-color="white" stop-opacity="0"/>
</radialGradient>
<linearGradient id="paint3_linear_516_3" x1="82.1165" y1="193.963" x2="87.4513" y2="55.0999" gradientUnits="userSpaceOnUse">
<stop stop-color="#E0E0E0"/>
<stop offset="1" stop-color="#C4C4C4"/>
</linearGradient>
<linearGradient id="paint4_linear_516_3" x1="344.165" y1="6.32031" x2="344.165" y2="261.466" gradientUnits="userSpaceOnUse">
<stop stop-color="white"/>
<stop offset="1" stop-color="white" stop-opacity="0"/>
</linearGradient>
<radialGradient id="paint5_radial_516_3" cx="0" cy="0" r="1" gradientUnits="userSpaceOnUse" gradientTransform="translate(322.218 261.466) rotate(-91.544) scale(293.222 662.262)">
<stop offset="0.572645" stop-color="white"/>
<stop offset="1" stop-color="white" stop-opacity="0"/>
</radialGradient>
</defs>
</svg>
